<svg width="67" height="68" viewBox="0 0 67 68" fill="none" xmlns="http://www.w3.org/2000/svg">
<g clip-path="url(#clip0_29_174)">
<path d="M30.8935 29.0962L25.9988 25.21C24.785 24.2485 22.8533 22.9529 20.6296 22.2141C18.4419 21.486 16.168 21.3568 13.9702 22.3816C9.22342 24.5951 7.2248 30.0992 9.32996 34.6137C10.9293 38.0435 13.6275 39.7334 19.0712 41.6913C20.4668 42.1921 22.0311 42.7074 23.7605 43.2734C28.2721 44.7556 33.8838 46.6005 40.4169 49.5192C42.3804 42.6385 44.5743 37.1537 46.3388 32.7449C47.0169 31.0564 47.6292 29.5227 48.1411 28.1358C50.1404 22.7072 50.5803 19.554 48.9809 16.1242C46.8758 11.6096 41.3747 9.60272 36.6279 11.8162C34.4273 12.8424 33.0675 14.666 32.219 16.8098C31.3556 18.9882 31.1064 21.3008 31.0628 22.8486L30.8935 29.0962ZM42.9548 52.0631C42.8937 52.2883 42.7843 52.4974 42.6341 52.6759C42.4838 52.8544 42.2965 52.998 42.085 53.0966C41.8736 53.1952 41.6432 53.2464 41.4099 53.2468C41.1766 53.2471 40.9461 53.1965 40.7343 53.0986C33.688 49.8261 27.788 47.888 22.9313 46.2943C14.522 43.5298 9.23024 41.7943 6.49775 35.9344C3.63848 29.8027 6.39034 22.4681 12.6495 19.5494C17.1811 17.4363 21.737 18.9323 24.9423 20.7409C26.1607 21.4313 27.1851 22.1639 27.9404 22.7633C27.9748 21.5566 28.1011 20.3542 28.3183 19.1667C28.9918 15.5459 30.7757 11.0971 35.3072 8.98397C41.5664 6.06526 48.9539 8.67177 51.8131 14.8035C54.5456 20.6634 52.4737 25.8327 49.186 34.0516C47.2863 38.7992 44.9799 44.5675 42.9548 52.0631Z" fill="white"/>
</g>
<defs>
<clipPath id="clip0_29_174">
<rect width="50" height="50" fill="white" transform="translate(0 22) rotate(-25)"/>
</clipPath>
</defs>
</svg>
